<svg xmlns="http://www.w3.org/2000/svg" fill='#0075FF' width='150' shape-rendering="geometricPrecision" text-rendering="geometricPrecision" image-rendering="optimizeQuality" fill-rule="evenodd" clip-rule="evenodd" viewBox="0 0 512 512"><path d="M189.758 8.785C326.292-27.8 466.631 53.225 503.215 189.758c36.583 136.534-44.44 276.873-180.973 313.457C185.708 539.798 45.369 458.774 8.785 322.24-27.8 185.707 53.225 45.368 189.758 8.785zm-15.499 361.989c41.756 36.12 119.666 37.535 166.475 0-25.487-28.989-53.285-29.865-84.137-7.076-31.808-25.433-53.103-26.153-82.338 7.076zm-55.297-91.093h.001-.002c0 181.375 274.079 165.531 274.079-.172.787 58.937-273.257 58.212-274.078.172zM337.46 116.098c17.913 0 32.434 20.46 32.434 45.698 0 25.239-14.521 45.699-32.434 45.699-17.913 0-32.433-20.46-32.433-45.699 0-25.238 14.52-45.698 32.433-45.698zm-162.92 0c17.914 0 32.433 20.46 32.433 45.698 0 25.239-14.519 45.699-32.433 45.699-17.913 0-32.432-20.46-32.432-45.699 0-25.238 14.519-45.698 32.432-45.698z"/></svg>